<svg xmlns="http://www.w3.org/2000/svg" viewBox="0 0 64 64" role="img" aria-label="Brown Sugar Boba Chinese Trainer">
  <rect x="4" y="4" width="56" height="56" rx="14" fill="#ffffff"/>
  <path d="M38 9 33.5 43" fill="none" stroke="#111827" stroke-width="3.2" stroke-linecap="round"/>
  <path d="M18 20h29" fill="none" stroke="#c71924" stroke-width="3.4" stroke-linecap="round"/>
  <path d="M21 20 24.2 50a4.7 4.7 0 0 0 4.7 4.2h8.2a4.7 4.7 0 0 0 4.7-4.2L45 20" fill="#ffffff" stroke="#111827" stroke-width="2.7" stroke-linecap="round" stroke-linejoin="round"/>
  <path d="M26 29.5c3.3-2.2 6.2-2.1 8.8.1 2.7 2.3 5.3 2.2 7.9-.2" fill="none" stroke="#c71924" stroke-width="2.3" stroke-linecap="round"/>
  <path d="M29.4 24.6c-1.6 7.5-.9 14.2 2 20.3" fill="none" stroke="#a4632a" stroke-width="2.2" stroke-linecap="round" opacity=".78"/>
  <circle cx="28.7" cy="47.6" r="2.5" fill="#5a3322"/>
  <circle cx="34" cy="44.8" r="2.35" fill="#5a3322"/>
  <circle cx="39" cy="48.4" r="2.55" fill="#5a3322"/>
</svg>
