<svg xmlns="http://www.w3.org/2000/svg" viewBox="8 4 48 56" role="img" aria-label="Brown Sugar Boba Chinese Trainer">
  <defs>
    <linearGradient id="straw3d" x1="28" x2="40" y1="6" y2="37" gradientUnits="userSpaceOnUse">
      <stop offset="0" stop-color="#f5d79e"/>
      <stop offset=".52" stop-color="#c88a45"/>
      <stop offset="1" stop-color="#8e552f"/>
    </linearGradient>
    <linearGradient id="cupGlass3d" x1="18" x2="47" y1="20" y2="58" gradientUnits="userSpaceOnUse">
      <stop offset="0" stop-color="#ffffff" stop-opacity=".9"/>
      <stop offset=".48" stop-color="#fff7ec" stop-opacity=".68"/>
      <stop offset="1" stop-color="#ecd2ad" stop-opacity=".62"/>
    </linearGradient>
    <linearGradient id="tea3d" x1="20" x2="45" y1="31" y2="58" gradientUnits="userSpaceOnUse">
      <stop offset="0" stop-color="#f9dfad"/>
      <stop offset=".5" stop-color="#d99a54"/>
      <stop offset="1" stop-color="#8f4e25"/>
    </linearGradient>
    <linearGradient id="sugar3d" x1="24" x2="39" y1="28" y2="53" gradientUnits="userSpaceOnUse">
      <stop offset="0" stop-color="#b86d32" stop-opacity=".62"/>
      <stop offset="1" stop-color="#5f321f" stop-opacity=".36"/>
    </linearGradient>
    <radialGradient id="pearl3d" cx="32%" cy="24%" r="72%">
      <stop offset="0" stop-color="#9f6a45"/>
      <stop offset=".55" stop-color="#5b3023"/>
      <stop offset="1" stop-color="#25130f"/>
    </radialGradient>
    <linearGradient id="shine3d" x1="20" x2="32" y1="22" y2="54" gradientUnits="userSpaceOnUse">
      <stop offset="0" stop-color="#ffffff" stop-opacity=".78"/>
      <stop offset=".65" stop-color="#ffffff" stop-opacity=".2"/>
      <stop offset="1" stop-color="#ffffff" stop-opacity="0"/>
    </linearGradient>
    <clipPath id="cupClip">
      <path d="M18.4 20.6h27.2l-3.8 31.2a6.2 6.2 0 0 1-6.1 5.3h-7.4a6.2 6.2 0 0 1-6.1-5.3L18.4 20.6Z"/>
    </clipPath>
    <filter id="softDepth" x="8" y="4" width="48" height="56" filterUnits="userSpaceOnUse" color-interpolation-filters="sRGB">
      <feDropShadow dx="0" dy="2" stdDeviation="1.5" flood-color="#7b4a24" flood-opacity=".2"/>
    </filter>
  </defs>
  <ellipse cx="32" cy="56.8" rx="12.8" ry="2.5" fill="#7b4a24" opacity=".12"/>
  <g filter="url(#softDepth)">
    <path d="M36.2 6.8 34 21.2" fill="none" stroke="url(#straw3d)" stroke-width="4.4" stroke-linecap="round"/>
    <path d="M37.2 7.8 35.2 20.8" fill="none" stroke="#fff5dc" stroke-width="1.2" stroke-linecap="round" opacity=".65"/>
    <path d="M18.4 20.6h27.2l-3.8 31.2a6.2 6.2 0 0 1-6.1 5.3h-7.4a6.2 6.2 0 0 1-6.1-5.3L18.4 20.6Z" fill="url(#cupGlass3d)"/>
    <g clip-path="url(#cupClip)">
      <path d="M18.2 32.3c4-2.3 8.2-2.3 12.6 0 4.9 2.6 9.9 2.4 15-.7V58H18.2V32.3Z" fill="url(#tea3d)"/>
      <path d="M25.3 24.8c-2.1 6.8-1.4 15.1 2.1 24.7" fill="none" stroke="url(#sugar3d)" stroke-width="4.4" stroke-linecap="round"/>
      <path d="M36.8 25.8c2.3 6.6 1.3 14.3-3 23.2" fill="none" stroke="url(#sugar3d)" stroke-width="3.6" stroke-linecap="round" opacity=".75"/>
      <path d="M22.4 25.2c1.1 11 .6 19.8-1.6 26.6" fill="none" stroke="#fff4dd" stroke-width="5.2" stroke-linecap="round" opacity=".2"/>
      <ellipse cx="32" cy="32.4" rx="14.8" ry="4.2" fill="#fff1d4" opacity=".28"/>
      <circle cx="26.4" cy="47.4" r="2.75" fill="url(#pearl3d)"/>
      <circle cx="32.1" cy="44.7" r="2.6" fill="url(#pearl3d)"/>
      <circle cx="37.7" cy="47.8" r="2.9" fill="url(#pearl3d)"/>
      <circle cx="29.6" cy="52" r="2.5" fill="url(#pearl3d)"/>
      <circle cx="35.5" cy="52.3" r="2.4" fill="url(#pearl3d)"/>
      <circle cx="25.6" cy="46.5" r=".72" fill="#ffffff" opacity=".38"/>
      <circle cx="31.4" cy="43.8" r=".68" fill="#ffffff" opacity=".38"/>
      <circle cx="36.9" cy="46.8" r=".76" fill="#ffffff" opacity=".38"/>
    </g>
    <path d="M18.4 20.6h27.2l-3.8 31.2a6.2 6.2 0 0 1-6.1 5.3h-7.4a6.2 6.2 0 0 1-6.1-5.3L18.4 20.6Z" fill="none" stroke="#d6b389" stroke-width="1.45" stroke-linejoin="round" opacity=".78"/>
    <ellipse cx="32" cy="20.6" rx="14.3" ry="3.8" fill="#fff8ec" stroke="#d6b389" stroke-width="1.25" opacity=".96"/>
    <ellipse cx="32" cy="20.1" rx="10.9" ry="2.2" fill="#f4c982" opacity=".42"/>
    <path d="M23.5 24.2c1.1 9.8 2.6 18.3 4.6 25.5" fill="none" stroke="url(#shine3d)" stroke-width="3.4" stroke-linecap="round"/>
    <path d="M43.2 24.2 40 50.1" fill="none" stroke="#7a441f" stroke-width="1.2" stroke-linecap="round" opacity=".16"/>
  </g>
</svg>
