<svg xmlns="http://www.w3.org/2000/svg" viewBox="10 4 44 56" role="img" aria-label="Brown Sugar Boba Chinese Trainer">
  <defs>
    <linearGradient id="teaFill" x1="23" x2="43" y1="28" y2="58" gradientUnits="userSpaceOnUse">
      <stop offset="0" stop-color="#f8e2bd" stop-opacity=".48"/>
      <stop offset="1" stop-color="#b87431" stop-opacity=".2"/>
    </linearGradient>
    <linearGradient id="pearlFill" x1="29" x2="37" y1="43" y2="53" gradientUnits="userSpaceOnUse">
      <stop offset="0" stop-color="#805138"/>
      <stop offset="1" stop-color="#2f1c17"/>
    </linearGradient>
    <clipPath id="cupClip">
      <path d="M19.8 20.5h24.4l-3.4 31.3a5.5 5.5 0 0 1-5.5 4.9h-6.6a5.5 5.5 0 0 1-5.5-4.9L19.8 20.5Z"/>
    </clipPath>
    <filter id="markShadow" x="10" y="6" width="44" height="54" filterUnits="userSpaceOnUse" color-interpolation-filters="sRGB">
      <feDropShadow dx="0" dy="1" stdDeviation="1.15" flood-color="#101828" flood-opacity=".14"/>
    </filter>
  </defs>
  <g filter="url(#markShadow)">
    <path d="M38.4 7.5 35.7 20.6" fill="none" stroke="#101828" stroke-width="3.4" stroke-linecap="round"/>
    <path d="M19.8 20.5h24.4l-3.4 31.3a5.5 5.5 0 0 1-5.5 4.9h-6.6a5.5 5.5 0 0 1-5.5-4.9L19.8 20.5Z" fill="#ffffff"/>
    <g clip-path="url(#cupClip)">
      <path d="M18 34.8c4.3-3.4 8.7-3.5 13.2-.2 4.9 3.6 9.4 3.4 14-.4V58H18V34.8Z" fill="url(#teaFill)"/>
      <path d="M24.2 30.7c3.4-2.5 7.1-2.4 10.9.2 2.9 2 5.8 1.9 8.7-.3" fill="none" stroke="#c71924" stroke-width="2.7" stroke-linecap="round"/>
      <path d="M28.4 24.8c-2.1 7.3-1.3 14.4 2.2 21.3" fill="none" stroke="#a4632a" stroke-width="2.8" stroke-linecap="round" opacity=".58"/>
      <path d="M36.2 27.4c1.8 6.1 1.1 11.6-2 16.4" fill="none" stroke="#a4632a" stroke-width="2.2" stroke-linecap="round" opacity=".34"/>
    </g>
    <path d="M19.8 20.5h24.4l-3.4 31.3a5.5 5.5 0 0 1-5.5 4.9h-6.6a5.5 5.5 0 0 1-5.5-4.9L19.8 20.5Z" fill="none" stroke="#101828" stroke-width="2.6" stroke-linejoin="round"/>
    <path d="M17.7 20.5h28.6" fill="none" stroke="#c71924" stroke-width="4" stroke-linecap="round"/>
    <circle cx="28.2" cy="48.3" r="2.65" fill="url(#pearlFill)"/>
    <circle cx="34" cy="45.6" r="2.5" fill="url(#pearlFill)"/>
    <circle cx="39.2" cy="49" r="2.8" fill="url(#pearlFill)"/>
    <circle cx="27.5" cy="47.3" r=".7" fill="#ffffff" opacity=".42"/>
    <circle cx="33.4" cy="44.7" r=".65" fill="#ffffff" opacity=".42"/>
  </g>
</svg>
